<svg width="477" height="188" viewBox="0 0 477 188" fill="none" xmlns="http://www.w3.org/2000/svg">
<path d="M264 91V0.5H287.75V71.75H324.625V91H264ZM334.875 91V0.5H399.5V19.75H358.625V36.125H396.125V55.375H358.625V71.75H399.375V91H334.875ZM412 91V0.5H476.625V19.75H435.75V36.125H473.25V55.375H435.75V71.75H476.5V91H412ZM42 95.5H65.5V157.625C65.375 175.375 51.5 187.25 31.625 187.25C14.375 187.25 0.25 178.625 0.375 158.125H24.125C24.375 165 27.625 168.625 33.125 168.625C38.875 168.625 41.875 164.875 42 157.625V95.5ZM101.375 95.5V186H77.625V95.5H101.375ZM109.625 95.5H136.25L154.25 132.5H155L173.125 95.5H199.75L166.5 157V186H142.875V157L109.625 95.5ZM288.75 140.75C288.75 170.875 269.5 187.25 245 187.25C220.25 187.25 201.125 170.75 201.125 140.75C201.125 110.625 220.25 94.25 245 94.25C269.5 94.25 288.75 110.625 288.75 140.75ZM264.25 140.75C264.25 124.125 257.375 115 245 115C232.5 115 225.625 124.125 225.625 140.75C225.625 157.375 232.5 166.5 245 166.5C257.375 166.5 264.25 157.375 264.25 140.75ZM387.375 140.75C387.375 170.875 368.125 187.25 343.625 187.25C318.875 187.25 299.75 170.75 299.75 140.75C299.75 110.625 318.875 94.25 343.625 94.25C368.125 94.25 387.375 110.625 387.375 140.75ZM362.875 140.75C362.875 124.125 356 115 343.625 115C331.125 115 324.25 124.125 324.25 140.75C324.25 157.375 331.125 166.5 343.625 166.5C356 166.5 362.875 157.375 362.875 140.75ZM476.875 95.5V186H457L423.375 137.125H422.75V186H399V95.5H419.25L452.375 144.125H453.125V95.5H476.875Z" fill="black"/>
</svg>
