<svg width="747" height="283" viewBox="0 0 747 283" fill="none" xmlns="http://www.w3.org/2000/svg">
<path d="M26.75 91L0.125 0.5H26.625L39.375 57.125H40.125L55 0.5H76L91 57.375H91.75L104.5 0.5H131L104.375 91H81.5L65.875 39.25H65.125L49.5 91H26.75ZM139.125 91V0.5H203.75V19.75H162.875V36.125H200.375V55.375H162.875V71.75H203.625V91H139.125ZM216.25 91V0.5H255C275.625 0.5 286.5 9.375 286.5 23.25C286.5 33.25 279.375 40.875 269.125 43V43.875C280.5 44.25 290 52.625 290 65.5C290 80.25 278 91 258.25 91H216.25ZM252.125 71.875C260.625 71.875 264.875 68.625 264.875 62.5C264.875 55.875 260.125 52.125 252.5 52.125H240V71.875H252.125ZM250.625 37.25C257.25 37.25 262 34 262 28.25C262 22.5 257.5 19.25 251 19.25H240V37.25H250.625ZM4.125 186V95.5H67.25V114.75H27.875V131.125H63.25V150.375H27.875V186H4.125ZM76.75 186V95.5H115.25C135.5 95.5 148.75 107 148.75 126.125C148.75 138.625 143 147.5 133.25 152.125L151.75 186H125.875L109.875 155.875H100.5V186H76.75ZM100.5 137.25H109.75C118.75 137.25 123.875 134 123.875 126.125C123.875 118.125 118.75 114.5 109.75 114.5H100.5V137.25ZM246.5 140.75C246.5 170.875 227.25 187.25 202.75 187.25C178 187.25 158.875 170.75 158.875 140.75C158.875 110.625 178 94.25 202.75 94.25C227.25 94.25 246.5 110.625 246.5 140.75ZM222 140.75C222 124.125 215.125 115 202.75 115C190.25 115 183.375 124.125 183.375 140.75C183.375 157.375 190.25 166.5 202.75 166.5C215.125 166.5 222 157.375 222 140.75ZM336 95.5V186H316.125L282.5 137.125H281.875V186H258.125V95.5H278.375L311.5 144.125H312.25V95.5H336ZM345.625 114.75V95.5H423.625V114.75H396.375V186H372.875V114.75H345.625ZM433.25 186V95.5H497.875V114.75H457V131.125H494.5V150.375H457V166.75H497.75V186H433.25ZM588.25 95.5V186H568.375L534.75 137.125H534.125V186H510.375V95.5H530.625L563.75 144.125H564.5V95.5H588.25ZM634.875 186H600.5V95.5H634.625C662.5 95.5 679.875 112.5 679.875 140.75C679.875 169 662.5 186 634.875 186ZM624.25 165.75H634C648 165.75 655.875 159.875 655.875 140.75C655.875 121.625 648 115.75 633.375 115.75H624.25V165.75ZM38.5 281H4.125V190.5H38.25C66.125 190.5 83.5 207.5 83.5 235.75C83.5 264 66.125 281 38.5 281ZM27.875 260.75H37.625C51.625 260.75 59.5 254.875 59.5 235.75C59.5 216.625 51.625 210.75 37 210.75H27.875V260.75ZM95.125 281V190.5H159.75V209.75H118.875V226.125H156.375V245.375H118.875V261.75H159.625V281H95.125ZM195.75 190.5L214.75 255H215.5L234.5 190.5H261.375L231.375 281H199L168.875 190.5H195.75ZM270.375 281V190.5H335V209.75H294.125V226.125H331.625V245.375H294.125V261.75H334.875V281H270.375ZM347.5 281V190.5H371.25V261.75H408.125V281H347.5ZM501.75 235.75C501.75 265.875 482.5 282.25 458 282.25C433.25 282.25 414.125 265.75 414.125 235.75C414.125 205.625 433.25 189.25 458 189.25C482.5 189.25 501.75 205.625 501.75 235.75ZM477.25 235.75C477.25 219.125 470.375 210 458 210C445.5 210 438.625 219.125 438.625 235.75C438.625 252.375 445.5 261.5 458 261.5C470.375 261.5 477.25 252.375 477.25 235.75ZM513.375 281V190.5H551.875C572.125 190.5 585.375 203.25 585.375 222.25C585.375 241.625 571.75 253.75 551.125 253.75H537.125V281H513.375ZM537.125 235.25H546.375C555.375 235.25 560.5 230.25 560.5 222.25C560.5 214.375 555.375 209.5 546.375 209.5H537.125V235.25ZM594.75 281V190.5H659.375V209.75H618.5V226.125H656V245.375H618.5V261.75H659.25V281H594.75ZM671.875 281V190.5H710.375C730.625 190.5 743.875 202 743.875 221.125C743.875 233.625 738.125 242.5 728.375 247.125L746.875 281H721L705 250.875H695.625V281H671.875ZM695.625 232.25H704.875C713.875 232.25 719 229 719 221.125C719 213.125 713.875 209.5 704.875 209.5H695.625V232.25Z" fill="black"/>
</svg>
